<svg width="170" height="68" viewBox="0 0 170 68" fill="none" xmlns="http://www.w3.org/2000/svg">
<path fill-rule="evenodd" clip-rule="evenodd" d="M12.1135 22C12.275 22 12.4213 21.9081 12.4894 21.7643C17.2339 11.6277 27.6128 5.07877 38.9312 5.07877C50.2486 5.07877 60.6275 11.6277 65.372 21.7643C65.439 21.9081 65.5863 22 65.7478 22H70.4599C70.597 22 70.725 21.9341 70.8022 21.8232C70.8783 21.7124 70.8946 21.5705 70.8448 21.4457C68.3603 15.2023 64.0759 9.86889 58.4548 6.02061C52.7016 2.08244 45.95 0 38.9312 0C31.9114 0 25.1608 2.08244 19.4066 6.02061C13.7855 9.86889 9.50003 15.2023 7.01552 21.4457C6.96677 21.5705 6.982 21.7124 7.0592 21.8232C7.1364 21.9341 7.26438 22 7.40049 22H12.1135Z" fill="#FCC200"/>
<path fill-rule="evenodd" clip-rule="evenodd" d="M39.9287 12.7707V8.41506C39.9287 8.18561 39.7446 8 39.5171 8C30.1866 8 21.5669 13.1286 17.0215 21.384C16.9507 21.5125 16.9527 21.6686 17.0265 21.796C17.1013 21.9225 17.2358 22 17.3815 22H22.4871C22.6186 22 22.743 21.9358 22.8208 21.8277C26.6887 16.4165 32.93 13.1858 39.5171 13.1858C39.7446 13.1858 39.9287 13.0001 39.9287 12.7707Z" fill="#FCC200"/>
<mask id="mask0_3403_40102" style="mask-type:alpha" maskUnits="userSpaceOnUse" x="6" y="46" width="65" height="22">
<path fill-rule="evenodd" clip-rule="evenodd" d="M6.98755 46H70.8733V68H6.98755V46Z" fill="white"/>
</mask>
<g mask="url(#mask0_3403_40102)">
<path fill-rule="evenodd" clip-rule="evenodd" d="M70.8012 46.1768C70.724 46.0659 70.597 46 70.4599 46H65.7469C65.5854 46 65.4391 46.0919 65.3721 46.2367C60.6266 56.3724 50.2478 62.9214 38.9294 62.9214C27.6121 62.9214 17.2333 56.3724 12.4888 46.2367C12.4208 46.0919 12.2745 46 12.113 46H7.40099C7.26386 46 7.13588 46.0659 7.05868 46.1768C6.9825 46.2876 6.96625 46.4295 7.01602 46.5543C9.4995 52.7967 13.7839 58.1312 19.406 61.9795C25.1601 65.9177 31.9107 68.0002 38.9294 68.0002C45.9492 68.0002 52.7008 65.9177 58.4539 61.9795C64.075 58.1312 68.3604 52.7967 70.8449 46.5543C70.8946 46.4295 70.8784 46.2876 70.8012 46.1768Z" fill="#FCC200"/>
</g>
<path fill-rule="evenodd" clip-rule="evenodd" d="M39.342 60C48.6725 60 57.2932 54.8714 61.8376 46.616C61.9084 46.4875 61.9064 46.3304 61.8326 46.204C61.7588 46.0775 61.6243 46 61.4776 46H56.373C56.2405 46 56.1171 46.0642 56.0393 46.1713C52.1714 51.5835 45.9291 54.8142 39.342 54.8142C39.1145 54.8142 38.9304 54.9999 38.9304 55.2293V59.5849C38.9304 59.8144 39.1145 60 39.342 60Z" fill="#FCC200"/>
<path fill-rule="evenodd" clip-rule="evenodd" d="M43.3516 39.0892C43.1529 38.8925 42.8348 38.8832 42.6235 39.0674C41.5053 40.0424 40.0627 40.5795 38.5626 40.5795C36.9181 40.5795 35.3741 39.9482 34.215 38.8004C33.0559 37.6536 32.4168 36.126 32.4168 34.499C32.4168 32.873 33.0559 31.3453 34.215 30.1986C35.3741 29.0518 36.9181 28.4194 38.5626 28.4194C40.0627 28.4194 41.5053 28.9566 42.6235 29.9326C42.8338 30.1168 43.1529 30.1065 43.3516 29.9098L45.7629 27.5241C45.8643 27.4227 45.9208 27.284 45.9177 27.1412C45.9146 26.9984 45.8528 26.8618 45.7461 26.7655C43.7889 24.9812 41.2375 24 38.5626 24C35.7235 24 33.057 25.0909 31.0548 27.0719C29.0525 29.0528 27.95 31.691 27.95 34.499C27.95 37.3079 29.0525 39.9461 31.0548 41.9271C33.057 43.9081 35.7235 45 38.5626 45C41.2375 45 43.7889 44.0168 45.7472 42.2345C45.8528 42.1372 45.9146 42.0006 45.9177 41.8578C45.9208 41.7149 45.8643 41.5762 45.7629 41.4748L43.3516 39.0892Z" fill="white"/>
<path fill-rule="evenodd" clip-rule="evenodd" d="M8.20323 31.9764C6.33365 31.2289 5.19869 30.7129 5.19869 29.8566C5.19869 28.9943 6.09015 28.3675 7.3159 28.3675C9.34541 28.3675 10.9591 29.7558 10.9736 29.7688C11.1325 29.9085 11.3481 29.9684 11.5596 29.9344C11.7701 29.8995 11.9538 29.7717 12.0549 29.5881L13.5252 26.9193C13.6665 26.6648 13.6221 26.3514 13.4168 26.1418C13.3322 26.054 11.2748 24 7.3417 24C3.38069 24 0.393692 26.539 0.393692 29.9085C0.393692 33.4905 3.55506 34.8089 6.09634 35.8689C8.02577 36.6723 9.19684 37.2262 9.19684 38.1165C9.19684 39.5577 7.52123 39.6315 7.18487 39.6315C4.88193 39.6315 3.03505 37.9308 3.01854 37.9139C2.87306 37.7791 2.67496 37.7113 2.47376 37.7272C2.27256 37.7442 2.08787 37.844 1.97025 38.0027L0.130589 40.4689C-0.0592588 40.7254 -0.0406867 41.0757 0.177019 41.3102C0.279165 41.42 2.72139 44 7.13224 44C9.15969 44 10.892 43.3932 12.1426 42.2494C13.324 41.1655 13.975 39.6714 13.975 38.0406C13.975 34.2849 10.6382 32.9505 8.20323 31.9764Z" fill="white"/>
<path fill-rule="evenodd" clip-rule="evenodd" d="M52.1801 24H48.6396C48.2387 24 47.9143 24.3109 47.9143 24.6939V43.3071C47.9143 43.6901 48.2387 44 48.6396 44H52.1801C52.581 44 52.9054 43.6901 52.9054 43.3071V24.6939C52.9054 24.3109 52.581 24 52.1801 24Z" fill="white"/>
<path fill-rule="evenodd" clip-rule="evenodd" d="M68.1752 39.7039H60.7269V24.6939C60.7269 24.3099 60.4131 24 60.0254 24H56.6014C56.2147 24 55.8999 24.3099 55.8999 24.6939V43.3071C55.8999 43.6901 56.2147 44 56.6014 44H68.1752C68.563 44 68.8767 43.6901 68.8767 43.3071V40.3968C68.8767 40.0138 68.563 39.7039 68.1752 39.7039Z" fill="white"/>
<path fill-rule="evenodd" clip-rule="evenodd" d="M16.5964 36H25.3287C25.6737 36 25.9536 35.7104 25.9536 35.3557V32.6453C25.9536 32.2895 25.6737 32 25.3287 32H16.5964C16.2514 32 15.9714 32.2895 15.9714 32.6443V35.3547C15.9714 35.7104 16.2514 36 16.5964 36Z" fill="white"/>
<path fill-rule="evenodd" clip-rule="evenodd" d="M16.5964 28H25.3287C25.6737 28 25.9536 27.7105 25.9536 27.3547V24.6453C25.9536 24.2886 25.6737 24 25.3287 24H16.5964C16.2514 24 15.9714 24.2886 15.9714 24.6443V27.3547C15.9714 27.7105 16.2514 28 16.5964 28Z" fill="white"/>
<path fill-rule="evenodd" clip-rule="evenodd" d="M16.5964 44H25.3287C25.6737 44 25.9536 43.7105 25.9536 43.3547V40.6453C25.9536 40.2886 25.6737 40 25.3287 40H16.5964C16.2514 40 15.9714 40.2886 15.9714 40.6443V43.3547C15.9714 43.7105 16.2514 44 16.5964 44Z" fill="white"/>
<path d="M87.546 37.947C87.546 37.947 88.638 39.156 90.588 39.156C92.408 39.156 93.5 37.986 93.5 36.569C93.5 33.592 89.054 34.099 89.054 32.201C89.054 31.473 89.743 30.862 90.718 30.862C91.888 30.862 92.733 31.655 92.733 31.655L93.318 30.589C93.318 30.589 92.421 29.666 90.718 29.666C88.989 29.666 87.754 30.797 87.754 32.227C87.754 35.048 92.2 34.619 92.2 36.608C92.2 37.479 91.472 37.96 90.614 37.96C89.249 37.96 88.274 36.972 88.274 36.972L87.546 37.947ZM95.0847 39H96.3457V35.919C96.3457 35.607 96.3717 35.308 96.4497 35.048C96.7227 34.099 97.5417 33.423 98.5297 33.423C99.5827 33.423 99.7777 34.151 99.7777 35.074V39H101.039V34.788C101.039 33.111 100.324 32.266 98.7767 32.266C97.4637 32.266 96.6317 33.098 96.3457 33.735H96.3197C96.3197 33.735 96.3457 33.501 96.3457 33.189V29.822H95.0847V39ZM102.385 37.154C102.385 38.467 103.49 39.156 104.621 39.156C106.194 39.156 106.727 37.856 106.727 37.856H106.753C106.753 37.856 106.727 38.077 106.727 38.376V39H107.897V34.84C107.897 33.176 106.961 32.266 105.297 32.266C103.789 32.266 102.84 33.046 102.84 33.046L103.36 33.969C103.36 33.969 104.179 33.332 105.193 33.332C106.025 33.332 106.636 33.696 106.636 34.775V34.892H106.35C105.245 34.892 102.385 34.983 102.385 37.154ZM103.659 37.089C103.659 35.906 105.375 35.841 106.324 35.841H106.649V36.049C106.649 37.024 105.96 38.142 104.894 38.142C104.075 38.142 103.659 37.622 103.659 37.089ZM109.786 41.6H111.047V38.649C111.047 38.311 111.021 38.077 111.021 38.077H111.047C111.047 38.077 111.619 39.156 113.062 39.156C114.778 39.156 116.039 37.804 116.039 35.711C116.039 33.67 114.921 32.266 113.153 32.266C111.502 32.266 110.943 33.462 110.943 33.462H110.917C110.917 33.462 110.943 33.241 110.943 32.981V32.422H109.786V41.6ZM111.008 35.737C111.008 34.06 111.918 33.371 112.906 33.371C113.998 33.371 114.765 34.294 114.765 35.724C114.765 37.219 113.907 38.077 112.867 38.077C111.658 38.077 111.008 36.907 111.008 35.737ZM117.568 31.109H118.842V29.822H117.568V31.109ZM117.581 39H118.842V32.422H117.581V39ZM120.818 39H122.079V35.919C122.079 35.594 122.105 35.295 122.183 35.035C122.456 34.086 123.262 33.423 124.263 33.423C125.316 33.423 125.511 34.151 125.511 35.074V39H126.772V34.788C126.772 33.111 126.057 32.266 124.51 32.266C123.08 32.266 122.3 33.202 122.04 33.774H122.014C122.014 33.774 122.04 33.553 122.04 33.293V32.422H120.818V39ZM129.236 40.196L128.82 41.184C129.457 41.509 130.276 41.73 131.069 41.73C132.733 41.73 134.384 40.898 134.384 38.727V32.422H133.175V33.033C133.175 33.15 133.188 33.241 133.188 33.241H133.162C133.162 33.241 132.681 32.266 131.095 32.266C129.275 32.266 128.222 33.67 128.222 35.555C128.222 37.453 129.327 38.922 131.16 38.922C132.109 38.922 132.72 38.545 133.11 37.895H133.136C133.136 37.895 133.123 38.103 133.123 38.311V38.792C133.123 40.131 132.187 40.638 131.043 40.638C130.055 40.638 129.236 40.196 129.236 40.196ZM131.407 37.83C130.224 37.83 129.496 36.894 129.496 35.529C129.496 34.19 130.146 33.358 131.29 33.358C132.317 33.358 133.149 33.852 133.149 35.568C133.149 37.284 132.317 37.83 131.407 37.83ZM139.683 31.109H140.957V29.822H139.683V31.109ZM139.696 39H140.957V32.422H139.696V39ZM142.504 35.711C142.504 37.752 143.622 39.156 145.403 39.156C147.028 39.156 147.561 37.934 147.561 37.934H147.587C147.587 37.934 147.574 38.116 147.574 38.376V39H148.77V29.822H147.509V32.864C147.509 33.111 147.535 33.306 147.535 33.306H147.509C147.509 33.306 147.002 32.266 145.481 32.266C143.739 32.266 142.504 33.618 142.504 35.711ZM143.791 35.711C143.791 34.216 144.649 33.358 145.689 33.358C146.937 33.358 147.548 34.528 147.548 35.698C147.548 37.375 146.625 38.064 145.65 38.064C144.558 38.064 143.791 37.141 143.791 35.711ZM150.286 35.711C150.286 37.661 151.703 39.156 153.77 39.156C155.343 39.156 156.318 38.22 156.318 38.22L155.798 37.297C155.798 37.297 154.979 38.064 153.848 38.064C152.678 38.064 151.651 37.336 151.586 35.893H156.383C156.383 35.893 156.422 35.516 156.422 35.347C156.422 33.644 155.434 32.266 153.575 32.266C151.703 32.266 150.286 33.618 150.286 35.711ZM151.625 34.944C151.807 33.865 152.587 33.267 153.549 33.267C154.394 33.267 155.096 33.813 155.135 34.944H151.625ZM157.419 37.154C157.419 38.467 158.524 39.156 159.655 39.156C161.228 39.156 161.761 37.856 161.761 37.856H161.787C161.787 37.856 161.761 38.077 161.761 38.376V39H162.931V34.84C162.931 33.176 161.995 32.266 160.331 32.266C158.823 32.266 157.874 33.046 157.874 33.046L158.394 33.969C158.394 33.969 159.213 33.332 160.227 33.332C161.059 33.332 161.67 33.696 161.67 34.775V34.892H161.384C160.279 34.892 157.419 34.983 157.419 37.154ZM158.693 37.089C158.693 35.906 160.409 35.841 161.358 35.841H161.683V36.049C161.683 37.024 160.994 38.142 159.928 38.142C159.109 38.142 158.693 37.622 158.693 37.089ZM164.287 38.194C164.287 38.194 165.171 39.156 166.783 39.156C168.226 39.156 169.162 38.337 169.162 37.245C169.162 35.087 165.782 35.347 165.782 34.164C165.782 33.592 166.315 33.358 166.861 33.358C167.901 33.358 168.486 33.943 168.486 33.943L168.993 32.994C168.993 32.994 168.317 32.266 166.874 32.266C165.561 32.266 164.495 32.942 164.495 34.138C164.495 36.283 167.875 36.036 167.875 37.245C167.875 37.778 167.329 38.064 166.783 38.064C165.639 38.064 164.898 37.297 164.898 37.297L164.287 38.194Z" fill="white"/>
</svg>
